<svg width="27" height="27" viewBox="0 0 27 27" fill="none" xmlns="http://www.w3.org/2000/svg">
<path d="M15.8856 3.3336C16.0948 3.47745 16.2903 3.64572 16.4721 3.83977C16.922 4.32017 17.339 5.16156 17.6589 6.0708L21.6058 5.05706L22.0966 3.37567L23.0837 2.1991C23.3052 1.93583 23.6989 1.90054 23.9642 2.11903C24.2294 2.33887 24.265 2.72971 24.0448 2.99297L23.2245 3.97006L22.6093 6.08029L18.0113 7.26093C18.1139 7.68025 18.1891 8.08603 18.2328 8.45108L20.5229 8.40223C21.3459 8.38323 22.1416 8.68857 22.7391 9.24904L24.2867 10.7025L25.967 11.362C26.2869 11.4882 26.4442 11.8492 26.3184 12.1681C26.1912 12.4856 25.8276 12.6431 25.5063 12.5168L23.6031 11.7691L21.8805 10.1515C21.5209 9.81359 21.0438 9.63175 20.5502 9.64262L18.2178 9.69283C18.2 9.78783 18.1781 9.88282 18.1508 9.9751C18.1275 10.0552 18.0892 10.1271 18.04 10.1882C18.1672 10.3103 18.2806 10.4392 18.3791 10.5722C18.7824 11.1218 19.064 11.8289 19.2486 12.6879L22.7459 14.2933L22.9578 19.3078C22.9592 19.339 22.9674 19.3675 22.9811 19.3946L24.958 23.1633C25.1166 23.4673 24.9976 23.8419 24.6914 24.0007C24.3865 24.1581 24.0078 24.04 23.8492 23.736L21.8723 19.9673C21.7738 19.7801 21.7178 19.5724 21.7096 19.3607L21.5291 15.1022L19.4619 14.1536C19.4715 14.2622 19.4811 14.3734 19.4893 14.4861C19.5508 15.3627 19.5535 16.1553 19.5235 17.4065C19.5057 18.1081 19.5057 18.1569 19.5057 18.3618C19.5057 21.9527 16.8329 26.2261 13.6526 26.2261H12.9294C9.74934 26.2261 7.07776 21.9527 7.07776 18.3618C7.07776 18.1569 7.07639 18.1081 7.05999 17.4065C7.02991 16.1552 7.03264 15.3627 7.09417 14.4861C7.101 14.3775 7.11057 14.2703 7.11878 14.1644L5.07758 15.1022L4.89711 19.3607C4.88754 19.5724 4.83285 19.78 4.73305 19.9673L2.75747 23.736C2.59751 24.04 2.22015 24.1581 1.9139 24.0006C1.60765 23.8419 1.48872 23.4673 1.64867 23.1633L3.62424 19.3946C3.63928 19.3675 3.64748 19.339 3.64748 19.3078L3.86077 14.2933L7.33207 12.7001C7.51664 11.8356 7.79827 11.1245 8.20434 10.5722C8.38344 10.3279 8.6145 10.1013 8.88656 9.89232C8.85511 9.82854 8.82777 9.76205 8.80453 9.69284L6.43657 9.64262C5.9444 9.63177 5.46588 9.81362 5.10765 10.1515L3.38499 11.7691L1.4805 12.5168C1.16058 12.6431 0.796913 12.4856 0.669758 12.1681C0.54261 11.8492 0.699837 11.4882 1.02112 11.362L2.7014 10.7025L4.24907 9.24904C4.84652 8.68857 5.64224 8.38323 6.4639 8.40223L8.74846 8.45109C8.79358 8.07519 8.87424 7.65583 8.98498 7.22157L4.54173 6.08026L3.9265 3.97003L3.10617 2.99294C2.88605 2.72967 2.9216 2.33884 3.18684 2.119C3.45207 1.90051 3.84582 1.9358 4.0673 2.19907L5.0544 3.37564L5.54521 5.05703L9.35006 6.03412C9.66314 5.1683 10.0665 4.36763 10.4985 3.89401C10.694 3.67959 10.9004 3.4964 11.1192 3.34031L10.8061 2.94405C10.102 2.05788 9.08068 1.47705 7.95414 1.32234C7.61234 1.27485 7.37307 0.961352 7.42095 0.622107C7.46743 0.282841 7.78327 0.0453384 8.12505 0.0928639C9.57153 0.290995 10.884 1.03875 11.7878 2.17732L12.2786 2.79612C12.645 2.69842 13.0374 2.65092 13.4571 2.65092C13.9028 2.65092 14.3226 2.69977 14.7149 2.80291L15.2112 2.17729C16.1149 1.03873 17.4275 0.290967 18.874 0.0928397C19.2158 0.045342 19.5316 0.282831 19.5781 0.622083C19.6259 0.961349 19.3867 1.27483 19.0449 1.32232C17.9183 1.47703 16.8971 2.05786 16.193 2.94403L15.8856 3.3336ZM10.2597 10.492C10.1996 10.5422 10.1298 10.5802 10.0574 10.6046C9.68822 10.819 9.39566 11.0565 9.2138 11.3035C8.72845 11.963 8.44681 13.0812 8.34153 14.5713C8.28274 15.3991 8.28 16.1618 8.31008 17.3763C8.32649 18.0942 8.32786 18.1417 8.32786 18.3616C8.32786 21.3552 10.5974 24.9839 12.9297 24.9839H13.6529C15.9853 24.9839 18.2547 21.3552 18.2547 18.3616C18.2547 18.1417 18.2561 18.0942 18.2738 17.3763C18.3025 16.1618 18.2998 15.3991 18.241 14.5713C18.1371 13.0812 17.8541 11.963 17.3688 11.3035C16.8602 10.6114 15.4943 10.0048 14.0055 9.73201L13.8701 9.70759L13.8619 9.70216C13.84 9.69944 13.8141 9.69809 13.7867 9.69537C13.6541 9.68723 13.4764 9.6818 13.2918 9.6818C13.1072 9.6818 12.9295 9.68723 12.7968 9.69537C12.7681 9.69809 12.7435 9.69944 12.7203 9.70216L12.7134 9.70759L12.5767 9.73201C11.7154 9.88943 10.8964 10.1595 10.2593 10.492L10.2597 10.492ZM16.9944 9.4389C17.0149 9.32626 17.0245 9.2082 17.0245 9.08471C17.0245 7.92986 16.2917 5.46679 15.5575 4.68512C15.0434 4.13823 14.3516 3.89122 13.4575 3.89122C12.5948 3.89122 11.9604 4.14092 11.4259 4.72716C10.6917 5.53054 9.95887 7.9434 9.95887 9.06178C9.95887 9.13507 9.96297 9.19613 9.97391 9.24499C10.6766 8.91658 11.497 8.66822 12.3501 8.51216L12.3528 8.52302C12.8313 8.41445 13.7515 8.41445 14.23 8.52302L14.2327 8.51216C15.2472 8.69808 16.2138 9.01412 16.9944 9.4389Z" fill="#051C34"/>
</svg>
