<svg width="33" height="27" viewBox="0 0 33 27" fill="none" xmlns="http://www.w3.org/2000/svg">
<path d="M32.5706 14.7413C32.1399 14.4075 31.6745 14.1227 31.1831 13.8886C31.1701 13.8814 31.1571 13.8742 31.1426 13.8684H31.1412C30.2306 13.442 29.2796 13.1038 28.3026 12.8595C28.2606 12.8422 28.2158 12.8321 28.171 12.8263C26.9526 12.5213 25.7169 12.2872 24.471 12.1224C24.4638 12.1224 24.4566 12.121 24.4479 12.1196C21.5024 11.7481 18.5364 11.5559 15.5679 11.5414V10.112C17.0985 9.84028 18.2143 8.51205 18.2172 6.9569C18.2172 5.80498 16.9323 3.10076 15.8541 1.0369C15.6893 0.723269 15.3656 0.526711 15.0101 0.526711C14.656 0.526711 14.3308 0.723273 14.1675 1.0369C13.0892 3.10224 11.8044 5.80657 11.8044 6.9569C11.8073 8.51349 12.9259 9.8432 14.458 10.112V11.5342C12.1368 11.5299 9.97765 11.5964 8.23162 11.6758V10.1077C9.53672 9.84174 10.4747 8.69561 10.4762 7.36446C10.4762 6.37009 9.38354 4.06769 8.46576 2.31174C8.314 2.01545 8.00903 1.83045 7.67662 1.83045C7.3442 1.83045 7.03922 2.01545 6.88748 2.31174C5.97114 4.0678 4.87705 6.37175 4.87705 7.36446C4.87994 8.69561 5.81652 9.84172 7.12162 10.1077V11.7322C5.38724 11.8261 4.2411 11.9201 4.04455 11.9374C3.73959 11.9649 3.51556 12.2337 3.54157 12.5372C3.56759 12.8408 3.83497 13.0677 4.13849 13.0431C4.21654 13.0359 6.9872 12.8075 10.7855 12.7049C4.9277 15.0174 0.597594 19.4082 0.377814 19.6339C0.270862 19.738 0.210159 19.881 0.210159 20.0313C0.210159 20.1802 0.270862 20.3233 0.377814 20.4274C0.486213 20.5329 0.630742 20.5892 0.779597 20.5849C0.929909 20.582 1.07155 20.517 1.17272 20.4086C1.23632 20.345 7.51045 13.9769 14.9278 12.6574C15.4568 12.6603 15.9916 12.6661 16.5307 12.6777C10.4331 15.4238 6.56658 21.3323 6.38158 21.6184C6.21537 21.8771 6.29053 22.2196 6.54779 22.3858C6.80506 22.552 7.14904 22.4783 7.31525 22.2196C7.36439 22.143 12.3262 14.5639 19.583 12.7876C20.5542 12.8396 21.5197 12.9104 22.462 13.0015C16.2138 16.5251 12.5342 23.2142 12.368 23.5206H12.3695C12.2221 23.7894 12.3232 24.1276 12.5921 24.2736C12.8623 24.4196 13.1991 24.3184 13.3451 24.0496C13.387 23.9715 17.626 16.2736 24.461 13.2356C25.2776 13.3469 26.0653 13.4798 26.8096 13.6359L26.8082 13.6345C23.1978 16.4846 20.365 20.2005 18.5727 24.4366C18.4629 24.7228 18.6074 25.0422 18.8936 25.1521C18.9572 25.1766 19.0237 25.1882 19.0916 25.1882C19.3214 25.1882 19.5267 25.0465 19.609 24.8312C19.6336 24.7647 22.16 18.2752 28.2174 13.9724V13.971C28.81 14.13 29.3939 14.3236 29.9634 14.5506C24.7242 19.8419 24.467 25.6506 24.4582 25.9022C24.4481 26.2086 24.688 26.4644 24.9929 26.476H25.0132C25.3123 26.476 25.5581 26.2389 25.5682 25.9397C25.5711 25.8805 25.8442 20.1037 31.0342 15.0551C31.3305 15.217 31.6123 15.4034 31.8782 15.6101C32.1196 15.8009 32.4679 15.7604 32.6587 15.5205C32.8495 15.2806 32.809 14.9308 32.5691 14.7414L32.5706 14.7413ZM12.9143 6.95692C12.9143 6.28918 13.7136 4.33369 15.01 1.82021C16.3065 4.33362 17.1058 6.28907 17.1058 6.95692H17.1072C17.1058 8.11028 16.175 9.04538 15.0231 9.05264H15.013H15.0014C13.848 9.04685 12.9158 8.11028 12.9143 6.95692ZM5.98681 7.36451C5.98681 6.82398 6.62854 5.24567 7.67638 3.20201C8.72422 5.24567 9.36595 6.82398 9.36595 7.36451C9.36595 8.29817 8.61004 9.05408 7.67638 9.05408C6.74417 9.05408 5.98681 8.29817 5.98681 7.36451Z" fill="#051C34"/>
</svg>
