<svg width="30" height="26" viewBox="0 0 30 26" fill="none" xmlns="http://www.w3.org/2000/svg">
<path fill-rule="evenodd" clip-rule="evenodd" d="M14.6998 13.1638C13.8499 12.7363 12.8798 12.4963 11.8598 12.4963C9.32985 12.4963 7.14976 13.9663 6.10976 16.0976L5.19974 14.9663C5.02974 14.7601 4.72973 14.7201 4.50976 14.8763L1.99974 16.6988C1.78974 16.8513 1.73974 17.1363 1.86974 17.3588L3.11973 19.4714C1.55973 20.3363 0.499725 22.0001 0.499725 23.9088C0.499725 24.4401 0.589725 24.9513 0.739725 25.4313C0.799725 25.64 0.999725 25.7813 1.20974 25.7813H28.7899C29.0099 25.7813 29.2099 25.6401 29.2699 25.4313C29.4199 24.9513 29.4999 24.44 29.4999 23.9088C29.4999 22.1738 28.6299 20.6413 27.2999 19.7264L28.4699 18.4089C28.6299 18.2289 28.6399 17.9576 28.4899 17.7676L26.6799 15.4614C26.5999 15.3564 26.4799 15.2877 26.3499 15.2714C26.2199 15.2564 26.0799 15.2952 25.9799 15.3789L24.5299 16.5377C23.6999 14.7914 21.93 13.5826 19.8701 13.5826C19.7001 13.5826 19.5301 13.5914 19.3601 13.6076L19.5601 12.4227C19.5901 12.2852 19.5501 12.1439 19.4701 12.0326C19.3801 11.9214 19.2501 11.8514 19.1201 11.8401L15.6401 11.5426C15.4101 11.5239 15.1901 11.6664 15.1201 11.8864L14.6998 13.1638ZM3.83968 20.2262C2.45968 20.8775 1.49968 22.2825 1.49968 23.9088C1.49968 24.2088 1.53968 24.5013 1.59968 24.7813H28.4096C28.4696 24.5013 28.4996 24.2088 28.4996 23.9088C28.4996 21.6775 26.6996 19.8637 24.4798 19.8413C24.3398 19.84 24.1998 19.7763 24.1098 19.6688C24.0098 19.5613 23.9698 19.4188 23.9898 19.2762C24.0098 19.1012 24.0198 18.9212 24.0198 18.7375C24.0198 16.445 22.1598 14.5826 19.8697 14.5826C18.7397 14.5826 17.7097 15.0351 16.9597 15.7689C16.8597 15.8714 16.7197 15.9214 16.5697 15.9101C16.4297 15.8976 16.2897 15.8239 16.2097 15.7064C15.2297 14.3676 13.6397 13.4964 11.8596 13.4964C9.51958 13.4964 7.51974 14.9964 6.77958 17.0865C6.77958 17.2002 6.74958 17.314 6.67958 17.4077C6.53958 17.8764 6.46958 18.3714 6.46958 18.8827C6.46958 19.0302 6.47958 19.1765 6.48958 19.3202C6.49958 19.4665 6.44958 19.6115 6.33958 19.7165C6.23958 19.819 6.08958 19.8715 5.94957 19.8577C5.81957 19.8465 5.69957 19.8415 5.56957 19.8415C5.09955 19.8415 4.63958 19.9215 4.21955 20.0715C4.18955 20.104 4.14955 20.1327 4.10955 20.1565C4.02955 20.2077 3.92968 20.23 3.83968 20.2262ZM22.2198 21.68C22.5699 21.68 22.8598 21.9662 22.8598 22.3187C22.8598 22.6712 22.5698 22.9575 22.2198 22.9575C21.8698 22.9575 21.5798 22.6712 21.5798 22.3187C21.5798 21.9662 21.8698 21.68 22.2198 21.68ZM8.73984 21.3437C9.09984 21.3437 9.37984 21.63 9.37984 21.9812C9.37984 22.335 9.09984 22.6212 8.73984 22.6212C8.38982 22.6212 8.09984 22.335 8.09984 21.9812C8.09984 21.63 8.38984 21.3437 8.73984 21.3437ZM15.6397 19.0875C15.9997 19.0875 16.2797 19.375 16.2797 19.7262C16.2797 20.08 15.9997 20.3662 15.6397 20.3662C15.2897 20.3662 14.9997 20.08 14.9997 19.7262C14.9997 19.375 15.2897 19.0875 15.6397 19.0875ZM26.3997 19.235L27.4497 18.0562L26.2097 16.475L24.9197 17.5062C24.9097 17.5162 24.8997 17.525 24.8797 17.5337C24.9697 17.9212 25.0197 18.3237 25.0197 18.7375V18.8737C25.4997 18.93 25.9697 19.0537 26.3997 19.235ZM5.69952 17.1825L4.71952 15.965L2.95952 17.24L4.0495 19.0737C4.49949 18.9312 4.97949 18.8512 5.4695 18.8412C5.4795 18.2675 5.55952 17.7112 5.69952 17.1825ZM20.9494 17.7474C21.2995 17.7474 21.5795 18.0337 21.5795 18.3862C21.5795 18.74 21.2995 19.0262 20.9494 19.0262C20.5894 19.0262 20.3094 18.7399 20.3094 18.3862C20.3094 18.0337 20.5894 17.7474 20.9494 17.7474ZM10.8294 16.4712C11.1894 16.4712 11.4694 16.7562 11.4694 17.1087C11.4694 17.4612 11.1894 17.7474 10.8294 17.7474C10.4794 17.7474 10.1994 17.4612 10.1994 17.1087C10.1994 16.7562 10.4794 16.4712 10.8294 16.4712ZM15.5795 13.6937C15.9795 13.9824 16.3495 14.3174 16.6795 14.6912C17.1595 14.3099 17.7095 14.0137 18.3095 13.8237L18.4895 12.7899L15.9495 12.5724L15.5795 13.6937ZM10.8294 0.254966C10.8294 0.254966 8.97945 0.976215 9.20944 3.19497C9.31944 4.26623 9.77942 4.75247 10.2894 5.23247C10.6594 5.58121 11.0494 5.92245 11.2094 6.70121C11.5394 8.30495 10.4194 8.9662 10.4194 8.9662C10.1794 9.09995 10.0894 9.4037 10.2294 9.6462C10.3594 9.8862 10.6694 9.97369 10.9094 9.8387C10.9094 9.8387 12.6794 8.89246 12.1894 6.5011C11.9794 5.45361 11.4694 4.97735 10.9794 4.50859C10.6294 4.17233 10.2794 3.84235 10.1994 3.09233C10.0594 1.66609 11.2094 1.18231 11.2094 1.18231C11.4594 1.07981 11.5894 0.787305 11.4894 0.531049C11.3794 0.276048 11.0894 0.151216 10.8294 0.254966ZM20.0595 0.254966C20.0595 0.254966 18.2095 0.976215 18.4295 3.19497C18.5395 4.26623 19.0095 4.75247 19.5095 5.23247C19.8795 5.58121 20.2795 5.92245 20.4395 6.70121C20.7595 8.30495 19.6495 8.9662 19.6495 8.9662C19.4095 9.09995 19.3195 9.4037 19.4495 9.6462C19.5895 9.8862 19.8895 9.97369 20.1295 9.8387C20.1295 9.8387 21.9095 8.89246 21.4195 6.5011C21.1995 5.45361 20.6995 4.97735 20.2095 4.50859C19.8495 4.17233 19.5095 3.84235 19.4295 3.09233C19.2795 1.66609 20.4295 1.18231 20.4295 1.18231C20.6895 1.07981 20.8095 0.787305 20.7095 0.531049C20.6095 0.276048 20.3195 0.151216 20.0595 0.254966ZM15.4496 0.254966C15.4496 0.254966 13.5896 0.976215 13.8196 3.19497C13.9296 4.26623 14.3996 4.75247 14.8996 5.23247C15.2696 5.58121 15.6696 5.92245 15.8196 6.70121C16.1496 8.30495 15.0296 8.9662 15.0296 8.9662C14.7896 9.09995 14.7096 9.4037 14.8396 9.6462C14.9796 9.8862 15.2796 9.97369 15.5196 9.8387C15.5196 9.8387 17.2896 8.89246 16.7996 6.5011C16.5896 5.45361 16.0796 4.97735 15.5896 4.50859C15.2396 4.17233 14.8896 3.84235 14.8196 3.09233C14.6696 1.66609 15.8196 1.18231 15.8196 1.18231C16.0796 1.07981 16.1996 0.787305 16.0996 0.531049C15.9896 0.276048 15.6996 0.151216 15.4496 0.254966Z" fill="#051C34"/>
</svg>
