<svg width="32" height="32" viewBox="0 0 32 32" fill="none" xmlns="http://www.w3.org/2000/svg">
<path d="M20.0637 4.96C18.7512 4.96 17.5037 5.18375 16.32 5.6C16.0963 5.69625 15.9675 5.95251 16.0325 6.17626C16.1288 6.40001 16.385 6.52877 16.6088 6.46376C17.6962 6.08001 18.8488 5.85627 20.0324 5.85627C25.6651 5.85627 30.2724 10.4326 30.2724 16.0963C30.2724 21.7599 25.6961 26.3363 20.0324 26.3363C18.2724 26.3363 16.5124 25.8888 15.0088 25.0238C14.785 24.8963 14.4962 24.96 14.3688 25.1838C14.2413 25.4075 14.305 25.6963 14.5288 25.8238C16.1925 26.7512 18.0814 27.2638 20.0014 27.2638C26.1451 27.2638 31.1377 22.2711 31.1377 16.1274C31.2002 9.9524 26.2078 4.96008 20.0641 4.96008L20.0637 4.96Z" fill="#051C34"/>
<path d="M28.1926 16.0963C28.1926 11.6163 24.5453 7.96896 20.0653 7.96896C18.7528 7.96896 17.4415 8.28896 16.289 8.89645C16.0652 9.02395 15.969 9.2802 16.0965 9.50394C16.224 9.72769 16.4802 9.82394 16.7039 9.69644C17.7277 9.15269 18.8802 8.86393 20.0639 8.86393C24.0313 8.86393 27.2966 12.0966 27.2966 16.0966C27.2966 20.0639 24.0639 23.3292 20.0639 23.3292C18.1439 23.3292 16.3513 22.593 14.9766 21.2492C14.7841 21.0567 14.4966 21.0567 14.3366 21.2492C14.1441 21.4417 14.1441 21.7292 14.3366 21.8892C15.8728 23.393 17.8892 24.2255 20.0639 24.2255C24.544 24.2242 28.1926 20.5768 28.1926 16.0968L28.1926 16.0963Z" fill="#051C34"/>
<path d="M15.04 6.33632C15.04 5.50381 14.3675 4.83258 13.5363 4.83258C13.12 4.83258 12.7363 4.99258 12.48 5.24884C11.9363 4.70509 10.9125 4.70509 10.3675 5.24884C10.08 4.99259 9.72749 4.83258 9.31123 4.83258C8.47872 4.83258 7.80749 5.50509 7.80749 6.33632V11.84C7.80749 12.96 8.38374 13.9837 9.34374 14.5925L9.85626 14.9125C9.88876 14.945 9.92001 14.9763 9.92001 15.04L9.47252 25.76C9.47252 26.1438 9.60002 26.5275 9.85626 26.8163C10.1125 27.1038 10.4963 27.2638 10.88 27.2638H12C12.3837 27.2638 12.7675 27.1038 13.0237 26.8163C13.28 26.5288 13.44 26.1763 13.4075 25.76L12.96 15.04C12.96 15.0075 12.9925 14.9438 13.0238 14.9125L13.5363 14.5925C14.4963 14.0163 15.0725 12.96 15.0725 11.84V6.33632H15.04ZM14.1125 11.84C14.1125 12.64 13.6963 13.3763 13.025 13.7925L12.5125 14.1125C12.1925 14.305 12 14.6563 12.0325 15.04L12.48 25.76C12.48 25.8875 12.4475 26.0163 12.3525 26.1438C12.2562 26.24 12.1287 26.3038 12 26.3038H10.88C10.7525 26.3038 10.6237 26.24 10.5275 26.1438C10.4312 26.0475 10.3675 25.92 10.4 25.7912L10.8475 15.0712C10.8475 14.6875 10.6875 14.335 10.3349 14.1437L9.82244 13.8237C9.14993 13.4075 8.73495 12.6712 8.73495 11.8712L8.7362 6.3362C8.7362 6.0162 8.99245 5.72871 9.34369 5.72871C9.66369 5.72871 9.95118 5.98496 9.95118 6.3362V10.6236C9.95118 10.8798 10.1437 11.071 10.3987 11.071C10.6549 11.071 10.8462 10.8785 10.8462 10.6236L10.8474 6.3362C10.8474 6.0162 11.1037 5.72871 11.4549 5.72871C11.7749 5.72871 12.0624 5.98496 12.0624 6.3362V10.6236C12.0624 10.8798 12.2549 11.071 12.5099 11.071C12.7661 11.071 12.9574 10.8785 12.9574 10.6236L12.9599 6.3362C12.9599 6.0162 13.2161 5.72871 13.5673 5.72871C13.8873 5.72871 14.1748 5.98496 14.1748 6.3362L14.1761 11.8399L14.1125 11.84Z" fill="#051C34"/>
<path d="M7.00736 15.4563C6.87986 14.2088 6.49485 10.9763 6.14362 9.02368C5.7911 7.03994 3.90362 5.63104 2.81626 4.96C2.46374 4.73625 2.08 4.73625 1.72877 4.9275C1.37626 5.12 1.18502 5.47125 1.18502 5.8875V15.4875C1.18502 18.335 1.08877 20.8638 0.865024 23.9675L0.832525 25.7275C0.832525 26.1112 0.960026 26.495 1.24878 26.7838C1.53628 27.0713 1.88878 27.2312 2.30504 27.2312H3.42504C3.84129 27.2312 4.22504 27.0712 4.51253 26.7512C4.80003 26.4637 4.92878 26.0475 4.89627 25.6638L4.76752 24.64C4.60752 22.4 4.41501 19.1037 4.35126 17.3127L5.59875 17.2164C6.46374 17.1202 7.10362 16.3201 7.00736 15.4563ZM5.50362 16.3201L3.8711 16.4476C3.61486 16.4801 3.45485 16.6713 3.45485 16.8951C3.48735 18.5588 3.7111 22.2387 3.8711 24.7024L3.93486 25.7262C3.93486 25.8862 3.90236 26.0137 3.77486 26.1424C3.67861 26.2699 3.51861 26.3024 3.3586 26.3024L2.27236 26.3037C2.11236 26.3037 1.98486 26.2399 1.88861 26.1437C1.79237 26.0474 1.72861 25.8874 1.72861 25.7599L1.75986 23.9999C1.98362 20.8637 2.07986 18.3362 2.07986 15.4562V5.85624C2.07986 5.75999 2.14362 5.72874 2.17611 5.69624C2.20861 5.69624 2.20861 5.66374 2.27236 5.66374C2.30486 5.66374 2.33611 5.66374 2.36861 5.69624C3.32861 6.2725 4.96113 7.51998 5.28113 9.15256C5.63364 11.0726 6.01738 14.2726 6.14487 15.5199C6.14362 15.9362 5.85612 16.2563 5.50362 16.3201Z" fill="#051C34"/>
</svg>
