<svg width="22" height="21" viewBox="0 0 22 21" fill="none" xmlns="http://www.w3.org/2000/svg">
<path d="M8.93749 0.648319C6.24601 0.64576 3.72107 1.94234 2.16655 4.12348C0.612798 6.30464 0.22265 9.09995 1.12155 11.618C2.0213 14.136 4.09661 16.0638 6.68777 16.7873C9.27871 17.5106 12.0624 16.9391 14.1524 15.2553L19.8792 20.9397L21.0961 19.7318L15.3692 14.0474C16.6927 12.4318 17.3484 10.3768 17.204 8.29901C17.0596 6.2212 16.1263 4.2753 14.5915 2.85501C13.0566 1.43474 11.0363 0.645742 8.93771 0.648363L8.93749 0.648319ZM8.93749 15.3884C7.19639 15.3884 5.52573 14.7017 4.29505 13.4793C3.06355 12.2578 2.37176 10.5995 2.37176 8.87127C2.37176 7.14308 3.06355 5.48477 4.29505 4.2632C5.52568 3.04082 7.19641 2.35415 8.93749 2.35415C10.6786 2.35415 12.3492 3.04082 13.5799 4.2632C14.8114 5.48472 15.5032 7.14308 15.5032 8.87127C15.5015 10.5995 14.8088 12.256 13.5782 13.4776C12.3476 14.6992 10.6786 15.3867 8.93749 15.3884Z" fill="#051C34"/>
</svg>
