<svg width="19" height="25" viewBox="0 0 19 25" fill="none" xmlns="http://www.w3.org/2000/svg">
<path d="M9.5 0.844604C4.3893 0.844604 0.224999 5.00891 0.224999 10.1196C0.224999 14.1446 4.18035 19.2553 6.80535 22.65L6.98035 22.8605C7.57507 23.6658 8.51979 24.1211 9.50007 24.1211C10.4803 24.1211 11.4251 23.6658 12.0198 22.8605C12.1948 22.6158 12.3698 22.4052 12.5803 22.1605C15.2053 18.7999 18.775 14.1802 18.775 10.1212C18.775 5.0105 14.6107 0.844604 9.5 0.844604ZM11.8106 21.5643C11.6356 21.809 11.425 22.0537 11.25 22.2643C10.8303 22.8248 10.2 23.1393 9.5 23.1393C8.8 23.1393 8.16972 22.8248 7.75 22.2643L7.575 22.0537C5.01972 18.7643 1.20535 13.793 1.20535 10.118C1.20535 5.56801 4.91605 1.82336 9.5 1.82336C14.0857 1.82336 17.7947 5.53406 17.7947 10.118C17.7947 13.8641 14.3304 18.3103 11.8106 21.5643Z" fill="#051C34"/>
<path d="M9.5 6.13025C7.33028 6.13025 5.58035 7.88025 5.58035 10.0499C5.58035 12.2195 7.33035 13.9695 9.5 13.9695C11.6697 13.9695 13.4197 12.2195 13.4197 10.0499C13.4197 7.88025 11.6697 6.13025 9.5 6.13025ZM9.5 12.9895C7.88944 12.9895 6.56056 11.6593 6.56056 10.0501C6.56056 8.43955 7.89084 7.11067 9.5 7.11067C11.1106 7.11067 12.4394 8.44095 12.4394 10.0501C12.4394 11.6607 11.1105 12.9895 9.5 12.9895Z" fill="#051C34"/>
</svg>
